<?xml version="1.0" encoding="UTF-8" standalone="no"?>
<!-- Generator: Adobe Illustrator 16.0.0, SVG Export Plug-In . SVG Version: 6.00 Build 0)  -->

<svg
   xmlns:dc="http://purl.org/dc/elements/1.1/"
   xmlns:cc="http://creativecommons.org/ns#"
   xmlns:rdf="http://www.w3.org/1999/02/22-rdf-syntax-ns#"
   xmlns:svg="http://www.w3.org/2000/svg"
   xmlns="http://www.w3.org/2000/svg"
   xmlns:sodipodi="http://sodipodi.sourceforge.net/DTD/sodipodi-0.dtd"
   xmlns:inkscape="http://www.inkscape.org/namespaces/inkscape"
   version="1.1"
   id="Capa_1"
   x="0px"
   y="0px"
   width="512"
   height="513.04993"
   viewBox="0 0 459 459.94124"
   xml:space="preserve"
   sodipodi:docname="tag-add-black-interface-symbol.svg"
   inkscape:version="0.92.1 r15371"><metadata
   id="metadata3723"><rdf:RDF><cc:Work
       rdf:about=""><dc:format>image/svg+xml</dc:format><dc:type
         rdf:resource="http://purl.org/dc/dcmitype/StillImage" /><dc:title></dc:title></cc:Work></rdf:RDF></metadata><defs
   id="defs3721" /><sodipodi:namedview
   pagecolor="#ffffff"
   bordercolor="#666666"
   borderopacity="1"
   objecttolerance="10"
   gridtolerance="10"
   guidetolerance="10"
   inkscape:pageopacity="0"
   inkscape:pageshadow="2"
   inkscape:window-width="1366"
   inkscape:window-height="705"
   id="namedview3719"
   showgrid="false"
   fit-margin-top="0"
   fit-margin-left="0"
   fit-margin-right="0"
   fit-margin-bottom="0"
   inkscape:zoom="1.0195312"
   inkscape:cx="266.78927"
   inkscape:cy="259.17477"
   inkscape:window-x="-8"
   inkscape:window-y="-8"
   inkscape:window-maximized="1"
   inkscape:current-layer="g3686" />
<g
   id="g3686"
   transform="translate(9.67241,-1.90489)">
	<g
   id="g3684"
   transform="matrix(-1,0.00383142,0,1,449.32759,1.7586212)">
		<path
   d="M 447.525,256.275 191.25,0 h -153 C 17.212,0 0,17.212 0,38.25 v 153 l 38.25,38.25 c 19.125,-11.475 42.075,-19.125 66.938,-19.125 68.85,0 124.312,55.463 124.312,124.312 0,24.862 -7.65,47.812 -19.125,66.938 l 45.9,45.9 c 15.3,15.3 40.162,15.3 53.55,0 l 137.7,-137.7 c 15.3,-15.3 15.3,-38.25 0,-53.55 z m -342.337,-122.4 c -15.3,0 -28.688,-13.388 -28.688,-28.688 0,-15.3 13.388,-28.687 28.688,-28.687 15.3,0 28.688,13.388 28.688,28.688 0,15.3 -13.389,28.687 -28.688,28.687 z"
   id="path3680"
   inkscape:connector-curvature="0"
   style="fill:#ff7138" />
		<path
   d="M 105.188,229.5 C 47.812,229.5 0,277.312 0,334.688 c 0,57.376 47.812,105.188 105.188,105.188 57.376,0 105.188,-47.812 105.188,-105.188 0,-57.376 -47.814,-105.188 -105.188,-105.188 z m 66.937,114.75 H 114.75 v 57.375 H 95.625 V 344.25 H 38.25 V 325.125 H 95.625 V 267.75 h 19.125 v 57.375 h 57.375 z"
   id="path3682"
   inkscape:connector-curvature="0"
   style="fill:#ff7138" />
	</g>
</g>
<g
   id="g3688"
   transform="translate(9.67241,-1.90489)">
</g>
<g
   id="g3690"
   transform="translate(9.67241,-1.90489)">
</g>
<g
   id="g3692"
   transform="translate(9.67241,-1.90489)">
</g>
<g
   id="g3694"
   transform="translate(9.67241,-1.90489)">
</g>
<g
   id="g3696"
   transform="translate(9.67241,-1.90489)">
</g>
<g
   id="g3698"
   transform="translate(9.67241,-1.90489)">
</g>
<g
   id="g3700"
   transform="translate(9.67241,-1.90489)">
</g>
<g
   id="g3702"
   transform="translate(9.67241,-1.90489)">
</g>
<g
   id="g3704"
   transform="translate(9.67241,-1.90489)">
</g>
<g
   id="g3706"
   transform="translate(9.67241,-1.90489)">
</g>
<g
   id="g3708"
   transform="translate(9.67241,-1.90489)">
</g>
<g
   id="g3710"
   transform="translate(9.67241,-1.90489)">
</g>
<g
   id="g3712"
   transform="translate(9.67241,-1.90489)">
</g>
<g
   id="g3714"
   transform="translate(9.67241,-1.90489)">
</g>
<g
   id="g3716"
   transform="translate(9.67241,-1.90489)">
</g>
</svg>