<?xml version="1.0" encoding="iso-8859-1"?>
<!-- Generator: Adobe Illustrator 16.0.0, SVG Export Plug-In . SVG Version: 6.00 Build 0)  -->
<!DOCTYPE svg PUBLIC "-//W3C//DTD SVG 1.1//EN" "http://www.w3.org/Graphics/SVG/1.1/DTD/svg11.dtd">
<svg xmlns="http://www.w3.org/2000/svg" xmlns:xlink="http://www.w3.org/1999/xlink" version="1.1" id="Capa_1" x="0px" y="0px" width="512px" height="512px" viewBox="0 0 593.523 593.523" style="enable-background:new 0 0 593.523 593.523;" xml:space="preserve">
<g>
	<g>
		<path d="M584.344,133.081H275.342c-5.07,0-12.182-2.806-15.888-6.267L226.22,95.758c-3.706-3.461-10.817-6.267-15.888-6.267H9.18    c-5.07,0-9.18,4.109-9.18,9.18v396.182c0,5.07,4.109,9.18,9.18,9.18h575.164c5.07,0,9.18-4.109,9.18-9.18V142.261    C593.523,137.19,589.414,133.081,584.344,133.081z M385.934,308.379l-125.953,125.9c-3.586,3.584-10.56,7.072-15.579,7.791    l-74.3,10.64c-5.018,0.719-8.5-2.767-7.775-7.784l10.707-74.215c0.725-5.019,4.217-11.992,7.803-15.578l125.928-125.928    c3.587-3.586,9.397-3.586,12.983,0l66.194,66.194C389.52,298.981,389.52,304.792,385.934,308.379z M430.37,263.957l-17.377,17.372    c-3.587,3.583-9.4,3.583-12.984,0l-66.193-66.194c-3.587-3.583-3.587-9.397,0-12.984l17.411-17.408    c3.586-3.586,9.397-3.583,12.98,0.003l66.17,66.231C433.957,254.56,433.957,260.374,430.37,263.957z" fill="#2bc382"/>
	</g>
</g>
<g>
</g>
<g>
</g>
<g>
</g>
<g>
</g>
<g>
</g>
<g>
</g>
<g>
</g>
<g>
</g>
<g>
</g>
<g>
</g>
<g>
</g>
<g>
</g>
<g>
</g>
<g>
</g>
<g>
</g>
</svg>
