<?xml version="1.0" encoding="UTF-8" standalone="no"?>
<!-- Generator: Adobe Illustrator 19.0.0, SVG Export Plug-In . SVG Version: 6.00 Build 0)  -->

<svg
   xmlns:dc="http://purl.org/dc/elements/1.1/"
   xmlns:cc="http://creativecommons.org/ns#"
   xmlns:rdf="http://www.w3.org/1999/02/22-rdf-syntax-ns#"
   xmlns:svg="http://www.w3.org/2000/svg"
   xmlns="http://www.w3.org/2000/svg"
   xmlns:sodipodi="http://sodipodi.sourceforge.net/DTD/sodipodi-0.dtd"
   xmlns:inkscape="http://www.inkscape.org/namespaces/inkscape"
   version="1.1"
   id="Layer_1"
   x="0px"
   y="0px"
   viewBox="0 0 512 512"
   style="enable-background:new 0 0 512 512;"
   xml:space="preserve"
   inkscape:version="0.91 r13725"
   sodipodi:docname="butter-jar.svg"><metadata
     id="metadata49"><rdf:RDF><cc:Work
         rdf:about=""><dc:format>image/svg+xml</dc:format><dc:type
           rdf:resource="http://purl.org/dc/dcmitype/StillImage" /></cc:Work></rdf:RDF></metadata><defs
     id="defs47"><filter
       inkscape:collect="always"
       style="color-interpolation-filters:sRGB"
       id="filter4191"
       x="-1.0515957"
       width="3.1031914"
       y="-0.46827793"
       height="1.9365559"><feGaussianBlur
         inkscape:collect="always"
         stdDeviation="80.562925"
         id="feGaussianBlur4193" /></filter></defs><sodipodi:namedview
     pagecolor="#ffffff"
     bordercolor="#666666"
     borderopacity="1"
     objecttolerance="10"
     gridtolerance="10"
     guidetolerance="10"
     inkscape:pageopacity="0"
     inkscape:pageshadow="2"
     inkscape:window-width="1707"
     inkscape:window-height="897"
     id="namedview45"
     showgrid="false"
     inkscape:zoom="0.921875"
     inkscape:cx="256.71409"
     inkscape:cy="333.08214"
     inkscape:window-x="-8"
     inkscape:window-y="-8"
     inkscape:window-maximized="1"
     inkscape:current-layer="Layer_1" /><path
     style="fill:#BC8565;"
     d="M372.87,512H139.13c-36.826,0-66.783-29.956-66.783-66.783v-244.87  c0-14.369,4.75-28.603,13.37-40.082l36.717-48.962V83.478c0-9.223,7.479-16.696,16.696-16.696H372.87  c9.217,0,16.696,7.473,16.696,16.696v27.826l36.728,48.973c8.608,11.468,13.359,25.701,13.359,40.071v244.87  C439.652,482.044,409.696,512,372.87,512z"
     id="path3" /><path
     style="fill:#B37B5A;"
     d="M389.565,111.304V83.478c0-9.223-7.479-16.696-16.696-16.696H256V512h116.87  c36.826,0,66.783-29.956,66.783-66.783v-244.87c0-14.369-4.75-28.603-13.359-40.071L389.565,111.304z"
     id="path5" /><path
     style="fill:#5C5F66;"
     d="M372.87,100.174H139.13c-27.619,0-50.087-22.468-50.087-50.087S111.511,0,139.13,0H372.87  c27.619,0,50.087,22.468,50.087,50.087S400.489,100.174,372.87,100.174z"
     id="path7" /><path
     style="fill:#E6EEFF;"
     d="M356.174,411.826H155.826c-9.217,0-16.696-7.473-16.696-16.696V261.565  c0-9.223,7.479-16.696,16.696-16.696h200.348c9.217,0,16.696,7.473,16.696,16.696V395.13  C372.87,404.353,365.391,411.826,356.174,411.826z"
     id="path9" /><path
     style="fill:#DAE2F2;"
     d="M356.174,244.87H256v166.957h100.174c9.217,0,16.696-7.473,16.696-16.696V261.565  C372.87,252.343,365.391,244.87,356.174,244.87z"
     id="path11" /><path
     style="fill:#53565C;"
     d="M372.87,0H256v100.174h116.87c27.619,0,50.087-22.468,50.087-50.087S400.489,0,372.87,0z"
     id="path13" /><g
     id="g15" /><g
     id="g17" /><g
     id="g19" /><g
     id="g21" /><g
     id="g23" /><g
     id="g25" /><g
     id="g27" /><g
     id="g29" /><g
     id="g31" /><g
     id="g33" /><g
     id="g35" /><g
     id="g37" /><g
     id="g39" /><g
     id="g41" /><g
     id="g43" /><path
     style="fill:#b88666;fill-opacity:1;opacity:0.658;filter:url(#filter4191)"
     d="m 255.33269,462.1932 0,-49.3077 52.88136,-0.31941 52.88136,-0.31942 3.99083,-2.48158 c 2.36191,-1.46869 4.92015,-4.40129 6.26765,-7.18488 2.25156,-4.65109 2.27349,-5.49257 1.97528,-75.81251 -0.29778,-70.21528 -0.33009,-71.14771 -2.57079,-74.17106 -1.24808,-1.68401 -3.88298,-4.16014 -5.85533,-5.50251 l -3.5861,-2.44068 -52.99213,0 -52.99213,0 0,-72.09523 0,-72.09523 64.81356,-0.31155 c 35.64746,-0.171351 65.6678,-0.729875 66.71187,-1.241163 1.69555,-0.830328 1.8983,-0.263687 1.8983,5.305363 l 0,6.23498 20.45292,27.34231 c 20.88505,27.91999 24.78421,34.35035 28.10088,46.34291 1.74528,6.31069 1.88688,16.7948 1.88688,139.70405 l 0,132.88136 -2.95875,8.67796 c -7.43073,21.79422 -25.80762,38.82189 -47.98102,44.45828 -5.41052,1.37532 -16.77995,1.64342 -69.69491,1.64342 l -63.22973,0 0,-49.30771 z"
     id="path3377"
     inkscape:connector-curvature="0" /><path
     style="opacity:0.65799997;fill:#b88666;fill-opacity:1"
     d="m 123.37008,509.3474 c -24.177793,-6.33814 -43.053715,-25.3901 -48.64321,-49.09686 -2.398241,-10.17167 -2.396671,-264.82574 0.0017,-274.99806 2.621221,-11.11752 7.345241,-18.95982 28.316625,-47.00811 l 19.94852,-26.68026 0,-6.72482 0,-6.724823 4.0678,0.862712 c 5.52664,1.172111 253.59576,1.103481 258.71186,-0.07157 l 4.0678,-0.934282 0,6.988352 0,6.98834 19.0542,25.40356 c 21.55039,28.73157 24.20708,32.97874 27.76463,44.38662 l 2.5371,8.13559 0,132.88136 0,132.88135 -2.52028,8.1356 c -7.23696,23.36137 -26.83451,41.63882 -49.87209,46.51269 -4.06546,0.86009 -42.3322,1.19863 -130.71187,1.15639 -118.59949,-0.0567 -125.35871,-0.16332 -132.72278,-2.09378 z M 365.2593,409.53481 c 2.20214,-1.49153 4.98658,-4.72472 6.18765,-7.18488 2.13068,-4.36427 2.17643,-6.20171 1.88222,-75.58223 -0.29778,-70.21528 -0.33009,-71.14771 -2.57079,-74.17106 -1.24808,-1.68401 -3.88298,-4.16014 -5.85533,-5.50251 l -3.58611,-2.44068 -105.44187,0 -105.44188,0 -3.6272,2.44437 c -1.99495,1.3444 -4.62985,4.15118 -5.85533,6.23729 -2.17203,3.69741 -2.23651,5.47281 -2.56083,70.50478 -0.18298,36.69153 -0.0177,69.33988 0.36737,72.5519 0.56435,4.70783 1.47398,6.66972 4.692,10.11959 2.34691,2.51602 5.54808,4.65101 7.76822,5.18095 2.07696,0.49577 50.18517,0.8233 106.90715,0.72787 l 103.13085,-0.17353 4.00388,-2.71186 z"
     id="path4195"
     inkscape:connector-curvature="0" /><path
     style="opacity:0.65799997;fill:#b88666;fill-opacity:1"
     d="m 128.28019,510.76233 c -12.3817,-2.12205 -26.56769,-9.63274 -35.989282,-19.05433 -5.709818,-5.70981 -8.467372,-9.63927 -12.200465,-17.38537 -2.652785,-5.50449 -5.367935,-12.93698 -6.033667,-16.51664 -0.860354,-4.62614 -1.115824,-44.78242 -0.883334,-138.84745 0.32617,-131.96746 0.333564,-132.35588 2.633991,-138.35727 4.296284,-11.20821 7.126826,-15.63152 27.104787,-42.3569 l 19.94424,-26.68026 0,-6.65904 0,-6.659034 6.77966,0.796928 c 8.66758,1.018846 246.77937,1.051116 254.37288,0.03448 l 5.69492,-0.762451 0,6.602751 0,6.60276 20.07434,26.86544 c 11.04089,14.776 21.54619,30.01073 23.34513,33.85496 6.75433,14.43369 6.55843,9.59073 6.23277,154.09076 l -0.29631,131.47433 -2.41195,7.05085 c -7.0397,20.57905 -22.4189,36.305 -42.605,43.56561 l -7.05084,2.53609 -128,0.13428 c -70.4,0.0739 -129.22034,-0.0749 -130.71187,-0.33049 z M 359.14523,411.7921 c 5.69844,-1.10735 11.69557,-6.51722 13.29068,-11.98922 0.72915,-2.50136 1.00115,-28.13442 0.78507,-73.98592 -0.32624,-69.22752 -0.36073,-70.19915 -2.59985,-73.22034 -1.24808,-1.68399 -3.88298,-4.16012 -5.85533,-5.50249 l -3.58611,-2.44068 -104.62479,0 c -116.58139,0 -109.3968,-0.4668 -114.78163,7.45768 l -2.64562,3.89339 0.004,72.15497 c 0.004,69.60652 0.0787,72.27741 2.11771,75.62147 2.91295,4.77738 7.07408,7.24166 13.54322,8.02049 8.52847,1.02676 199.06561,1.01804 204.3526,-0.01 l 4e-5,4.1e-4 z"
     id="path4197"
     inkscape:connector-curvature="0" /><path
     style="opacity:0.65799997;fill:#2bc382;fill-opacity:1"
     d="M 125.58262,510.23747 C 117.82724,508.74292 103.7946,501.82455 96.672357,495.98415 86.226119,487.418 77.773099,473.75462 74.604333,460.31361 c -2.343859,-9.942 -2.42322,-263.34194 -0.08593,-274.36877 2.397031,-11.30866 7.060212,-19.15014 28.396675,-47.7511 l 19.94138,-26.73089 0,-6.6624 0,-6.6624 5.69492,0.789368 c 7.73854,1.072632 248.30287,1.130602 255.45762,0.06155 l 5.69492,-0.850921 0,6.691221 0,6.69123 20.07434,26.86544 c 11.04089,14.776 21.54619,30.01073 23.34513,33.85496 6.75573,14.43668 6.55824,9.53683 6.23267,154.63267 -0.29506,131.50351 -0.30515,132.04048 -2.59355,138.00766 -8.1713,21.30728 -20.83015,34.77224 -40.00774,42.55539 l -8.67797,3.52192 -128.54237,0.16069 c -78.45771,0.0981 -130.65008,-0.24548 -133.95181,-0.88176 z m 237.27883,-99.78112 c 4.69706,-1.86887 9.2517,-7.81627 10.0163,-13.07916 0.37202,-2.56077 0.52705,-35.16442 0.34451,-72.45255 -0.32373,-66.1273 -0.38677,-67.89 -2.56004,-71.58953 -1.22547,-2.08611 -3.86037,-4.89289 -5.85533,-6.23729 l -3.6272,-2.44437 -104.78872,0.0178 -104.78875,0.0179 -4.22606,2.42283 c -8.64824,4.9581 -8.24872,1.03166 -8.24683,81.04998 0.002,78.48079 -0.24781,75.54018 6.85649,80.75338 2.97314,2.18172 4.60221,2.26226 56.40678,2.78897 78.29784,0.79607 156.8673,0.18505 160.46885,-1.24795 z"
     id="path4201"
     inkscape:connector-curvature="0" /></svg>