<?xml version="1.0" encoding="iso-8859-1"?>
<!-- Generator: Adobe Illustrator 18.1.1, SVG Export Plug-In . SVG Version: 6.00 Build 0)  -->
<svg xmlns="http://www.w3.org/2000/svg" xmlns:xlink="http://www.w3.org/1999/xlink" version="1.1" id="Capa_1" x="0px" y="0px" viewBox="0 0 612 612" style="enable-background:new 0 0 612 612;" xml:space="preserve" width="512px" height="512px">
<g>
	<g>
		<g>
			<path d="M493.094,389.141c-20.171,0-39.092,5.416-55.434,14.829L230.247,302.949c0.036-1.192,0.092-2.384,0.092-3.586     c0-1.202-0.054-2.394-0.092-3.587l195.8-95.366c19.249,14.537,42.629,22.45,67.046,22.45     c61.442,0,111.429-49.988,111.429-111.432C604.523,49.987,554.535,0,493.094,0C438.247,0,391.82,40.257,383.131,93.398     L166.79,198.766c-14.516-6.937-30.754-10.83-47.884-10.83c-61.442,0-111.429,49.988-111.429,111.429     c0,61.444,49.988,111.429,111.429,111.429c17.134,0,33.369-3.894,47.884-10.83l214.98,104.704     C383.935,564.217,433.028,612,493.094,612c61.442,0,111.429-49.987,111.429-111.429S554.536,389.141,493.094,389.141z      M416.773,106.113c2.734-39.918,36.256-71.187,76.321-71.187c42.185,0,76.503,34.319,76.503,76.503     c0,42.185-34.318,76.506-76.503,76.506c-19.615,0-38.266-7.415-52.52-20.877c-15.465-14.609-23.983-34.364-23.983-55.63     C416.591,109.665,416.654,107.874,416.773,106.113z M383.634,132.002c2.833,14.96,8.705,29.223,17.213,41.834L223.264,260.33     c-5.424-14.454-13.774-27.478-24.319-38.375L383.634,132.002z M42.403,299.365c0-42.183,34.321-76.503,76.503-76.503     c42.185,0,76.506,34.319,76.506,76.503s-34.321,76.503-76.506,76.503C76.724,375.867,42.403,341.548,42.403,299.365z      M386.5,468.122l-187.552-91.346c10.542-10.897,18.892-23.923,24.319-38.375l184.957,90.085     C398.473,439.945,390.993,453.383,386.5,468.122z M493.094,577.074c-42.182,0-76.503-34.319-76.503-76.503     s34.321-76.503,76.503-76.503c42.185,0,76.503,34.319,76.503,76.503S535.279,577.074,493.094,577.074z" fill="#2bc382"/>
		</g>
	</g>
</g>
<g>
</g>
<g>
</g>
<g>
</g>
<g>
</g>
<g>
</g>
<g>
</g>
<g>
</g>
<g>
</g>
<g>
</g>
<g>
</g>
<g>
</g>
<g>
</g>
<g>
</g>
<g>
</g>
<g>
</g>
</svg>
